<mxfile host="app.diagrams.net" agent="Mozilla/5.0 (Windows NT 10.0; Win64; x64) AppleWebKit/537.36 (KHTML, like Gecko) Chrome/130.0.0.0 Safari/537.36" border="50" scale="3" compressed="false" locked="false" version="24.8.6">
  <diagram name="Blank" id="YmL12bMKpDGza6XwsDPr">
    <mxGraphModel dx="607" dy="1501" grid="1" gridSize="10" guides="1" tooltips="1" connect="1" arrows="1" fold="1" page="1" pageScale="1" pageWidth="827" pageHeight="1169" background="none" math="1" shadow="0">
      <root>
        <mxCell id="X5NqExCQtvZxIxQ7pmgY-0" />
        <mxCell id="1" parent="X5NqExCQtvZxIxQ7pmgY-0" />
        <mxCell id="7MkAzN2yLicrXQPzEdz--28" value="" style="edgeStyle=orthogonalEdgeStyle;rounded=0;orthogonalLoop=1;jettySize=auto;html=1;strokeColor=#E07A5F;fontColor=#393C56;fillColor=#F2CC8F;" edge="1" parent="1" source="7MkAzN2yLicrXQPzEdz--4" target="7MkAzN2yLicrXQPzEdz--27">
          <mxGeometry relative="1" as="geometry">
            <Array as="points">
              <mxPoint x="225" y="-120" />
            </Array>
          </mxGeometry>
        </mxCell>
        <mxCell id="7MkAzN2yLicrXQPzEdz--30" value="" style="edgeStyle=orthogonalEdgeStyle;rounded=0;orthogonalLoop=1;jettySize=auto;html=1;strokeColor=#E07A5F;fontColor=#393C56;fillColor=#F2CC8F;" edge="1" parent="1" source="7MkAzN2yLicrXQPzEdz--4" target="7MkAzN2yLicrXQPzEdz--29">
          <mxGeometry relative="1" as="geometry" />
        </mxCell>
        <mxCell id="7MkAzN2yLicrXQPzEdz--32" style="edgeStyle=orthogonalEdgeStyle;rounded=0;orthogonalLoop=1;jettySize=auto;html=1;entryX=0;entryY=0.5;entryDx=0;entryDy=0;strokeColor=#E07A5F;fontColor=#393C56;fillColor=#F2CC8F;" edge="1" parent="1" source="7MkAzN2yLicrXQPzEdz--4" target="7MkAzN2yLicrXQPzEdz--25">
          <mxGeometry relative="1" as="geometry" />
        </mxCell>
        <mxCell id="7MkAzN2yLicrXQPzEdz--33" style="edgeStyle=orthogonalEdgeStyle;rounded=0;orthogonalLoop=1;jettySize=auto;html=1;entryX=0;entryY=0.5;entryDx=0;entryDy=0;strokeColor=#E07A5F;fontColor=#393C56;fillColor=#F2CC8F;" edge="1" parent="1" source="7MkAzN2yLicrXQPzEdz--4" target="7MkAzN2yLicrXQPzEdz--23">
          <mxGeometry relative="1" as="geometry">
            <Array as="points">
              <mxPoint x="230" y="-320" />
            </Array>
          </mxGeometry>
        </mxCell>
        <mxCell id="7MkAzN2yLicrXQPzEdz--4" value="SQL注入" style="rounded=1;whiteSpace=wrap;html=1;labelBackgroundColor=none;fillColor=#F2CC8F;strokeColor=#E07A5F;fontColor=#393C56;" vertex="1" parent="1">
          <mxGeometry x="190" y="-230" width="70" height="40" as="geometry" />
        </mxCell>
        <mxCell id="7MkAzN2yLicrXQPzEdz--23" value="二次注入" style="rounded=1;whiteSpace=wrap;html=1;labelBackgroundColor=none;fillColor=#F2CC8F;strokeColor=#E07A5F;fontColor=#393C56;" vertex="1" parent="1">
          <mxGeometry x="380" y="-340" width="70" height="40" as="geometry" />
        </mxCell>
        <mxCell id="7MkAzN2yLicrXQPzEdz--25" value="宽字节注入" style="rounded=1;whiteSpace=wrap;html=1;labelBackgroundColor=none;fillColor=#F2CC8F;strokeColor=#E07A5F;fontColor=#393C56;" vertex="1" parent="1">
          <mxGeometry x="379" y="-270" width="70" height="40" as="geometry" />
        </mxCell>
        <mxCell id="7MkAzN2yLicrXQPzEdz--27" value="外带注入" style="rounded=1;whiteSpace=wrap;html=1;labelBackgroundColor=none;fillColor=#F2CC8F;strokeColor=#E07A5F;fontColor=#393C56;" vertex="1" parent="1">
          <mxGeometry x="380" y="-140" width="70" height="40" as="geometry" />
        </mxCell>
        <mxCell id="7MkAzN2yLicrXQPzEdz--29" value="堆叠注入" style="rounded=1;whiteSpace=wrap;html=1;labelBackgroundColor=none;fillColor=#F2CC8F;strokeColor=#E07A5F;fontColor=#393C56;" vertex="1" parent="1">
          <mxGeometry x="379" y="-200" width="70" height="40" as="geometry" />
        </mxCell>
      </root>
    </mxGraphModel>
  </diagram>
</mxfile>
